<svg xmlns="http://www.w3.org/2000/svg" xmlns:xlink="http://www.w3.org/1999/xlink" width="100" zoomAndPan="magnify" viewBox="0 0 75 74.999997" height="100" preserveAspectRatio="xMidYMid meet" version="1.0"><defs><clipPath id="cee080a4ec"><path d="M 1 0.339844 L 74 0.339844 L 74 71 L 1 71 Z M 1 0.339844 " clip-rule="nonzero"/></clipPath></defs><g clip-path="url(#cee080a4ec)"><path fill="#6d23ff" d="M 7.0625 11.175781 C 9.652344 6.207031 15.640625 5.917969 20.660156 6.382812 C 26.269531 6.90625 29.164062 5.394531 33.894531 2.621094 C 37.738281 0.371094 41.289062 0.445312 45.363281 2.550781 C 50.28125 5.105469 49.277344 9.679688 53.261719 12.582031 C 56.957031 15.285156 62.539062 14.078125 66.46875 16.574219 C 70.410156 19.085938 71.476562 23.429688 71.257812 27.917969 C 70.957031 34.03125 67.835938 39.75 68.941406 45.949219 C 69.835938 50.945312 75 56.070312 72.425781 61.34375 C 67.605469 71.203125 52.554688 62.9375 44.816406 64.375 C 36.441406 65.945312 23.753906 75.3125 15.695312 66.992188 C 12.128906 63.316406 14.054688 57.464844 13.984375 52.976562 C 13.882812 46.734375 11.769531 44.847656 7.453125 40.78125 C 3.292969 36.875 0 34.929688 1.640625 29.019531 C 2.617188 25.476562 7.394531 24.691406 8.285156 22.355469 C 9.367188 19.4375 5.582031 13.992188 7.0625 11.175781 Z M 7.0625 11.175781 " fill-opacity="1" fill-rule="nonzero"/></g></svg>